<svg xmlns="http://www.w3.org/2000/svg" xmlns:xlink="http://www.w3.org/1999/xlink" viewBox="0 0 425.66 366.15"><defs><style>.cls-1{fill:#627e87;}.cls-2{fill:#efefef;}.cls-3{fill:#476870;}.cls-4{fill:#e0e0e0;}.cls-5{fill:#fff;}.cls-6{fill:#f9f9f9;}.cls-7{fill:url(#New_Gradient_Swatch_copy_7);}.cls-8{fill:#0e7c7d;}.cls-9{fill:#f6454d;}.cls-10{fill:#3280a6;}</style><linearGradient id="New_Gradient_Swatch_copy_7" x1="220.65" y1="41.37" x2="220.65" y2="57.21" gradientUnits="userSpaceOnUse"><stop offset="0" stop-color="#476870"/><stop offset="1" stop-color="#76949b"/></linearGradient></defs><g id="Layer_2" data-name="Layer 2"><g id="Layer_1-2" data-name="Layer 1"><g id="Code_Optimization" data-name="Code Optimization"><path class="cls-1" d="M395,86.92H51.69A16.08,16.08,0,0,0,35.61,103V341.94H411.12V103A16.08,16.08,0,0,0,395,86.92Z"/><path class="cls-2" d="M422.44,342H18.87A3.39,3.39,0,0,0,15.69,346c1.83,11.44,11.32,20.14,22.77,20.14H402.78c11.45,0,21-8.7,22.83-20.14A3.39,3.39,0,0,0,422.44,342Z"/><path class="cls-3" d="M395,86.92H51.69c-.25,0-.49.06-.73.07L411.12,333.13V103A16.08,16.08,0,0,0,395,86.92Z"/><rect class="cls-4" x="185.87" y="341.94" width="74.99" height="7.31"/><path class="cls-5" d="M45.68,331.88V103a6,6,0,0,1,6-6H395a6,6,0,0,1,6,6V331.88Z"/><path class="cls-6" d="M375.46,50.62V298.25a19.41,19.41,0,0,1-19.4,19.41H85.24a19.42,19.42,0,0,1-19.41-19.41V50.62Z"/><path class="cls-7" d="M375.47,61.19V37.35a14.43,14.43,0,0,0-14.42-14.42H79.85a14,14,0,0,0-14,14V61.19Z"/><path class="cls-5" d="M356.06,42.06a5,5,0,1,1-5-5A5,5,0,0,1,356.06,42.06Z"/><path class="cls-5" d="M339.46,42.06a5,5,0,1,1-5-5A5,5,0,0,1,339.46,42.06Z"/><path class="cls-5" d="M322.85,42.06a5,5,0,1,1-5-5A5,5,0,0,1,322.85,42.06Z"/><path class="cls-8" d="M295.4,171.13l-9.57-3.35a4.65,4.65,0,0,1-3-3.1,68.74,68.74,0,0,0-4.36-10.49,5,5,0,0,1-.17-4.36l4.53-9.15a5.23,5.23,0,0,0-1-5.7l-11.92-11.92a5.11,5.11,0,0,0-5.62-.92l-9.22,4.45a5.37,5.37,0,0,1-4.37-.08,62.06,62.06,0,0,0-10.4-4.37,4.91,4.91,0,0,1-3.19-3.1l-3.35-9.57a5.08,5.08,0,0,0-4.79-3.35H212.34a5,5,0,0,0-4.7,3.35L204.29,119a5.06,5.06,0,0,1-3.19,3.1,62.06,62.06,0,0,0-10.4,4.37,5.35,5.35,0,0,1-4.36.08l-9.23-4.45a5.28,5.28,0,0,0-5.71.92L159.57,135a5.09,5.09,0,0,0-1,5.7l4.53,9.15a5,5,0,0,1-.17,4.36,60.72,60.72,0,0,0-4.36,10.49,5,5,0,0,1-3,3.1L146,171.13a5.06,5.06,0,0,0-3.45,4.79v16.61a4.93,4.93,0,0,0,3.45,4.69l9.56,3.36a5,5,0,0,1,3.19,3.27,58.81,58.81,0,0,0,4.19,10.32,5.33,5.33,0,0,1,.17,4.53l-4.36,9.14a4.61,4.61,0,0,0,.92,5.63l11.74,11.82a5.13,5.13,0,0,0,5.71,1l9.06-4.44a4.83,4.83,0,0,1,4.53.16,59.12,59.12,0,0,0,10.4,4.28,5.34,5.34,0,0,1,3.27,3.19l3.27,9.4a4.8,4.8,0,0,0,4.7,3.27H229a4.9,4.9,0,0,0,4.79-3.27l3.27-9.4a5.18,5.18,0,0,1,3.27-3.19,56.43,56.43,0,0,0,10.4-4.28,4.68,4.68,0,0,1,4.45-.16l9.14,4.44a5,5,0,0,0,5.62-1l11.92-11.82a5.17,5.17,0,0,0,1-5.63l-4.53-9.14a5.4,5.4,0,0,1,.17-4.53,59.62,59.62,0,0,0,4.2-10.32,5,5,0,0,1,3.18-3.27l9.57-3.36a5,5,0,0,0,3.35-4.69V175.92A5.09,5.09,0,0,0,295.4,171.13Zm-74.67,55.29a42.2,42.2,0,1,1,42.12-42.28A42.22,42.22,0,0,1,220.73,226.42Z"/><path class="cls-6" d="M266.45,184.13a45.8,45.8,0,1,1-45.71-45.71A45.72,45.72,0,0,1,266.45,184.13Z"/><path class="cls-9" d="M203.93,197.65l-15.8-10.82a3.83,3.83,0,0,1-1-.93,1.88,1.88,0,0,1-.33-1.12v-1.12a2,2,0,0,1,.31-1.12,3.89,3.89,0,0,1,1-1l15.8-10.77a1.53,1.53,0,0,1,.94-.42.9.9,0,0,1,.67.26,1,1,0,0,1,.26.72v3.59a1.52,1.52,0,0,1-.28,1,4.59,4.59,0,0,1-.89.77l-11.28,7.55,11.28,7.56a4.27,4.27,0,0,1,.89.76,1.47,1.47,0,0,1,.28.91v3.64a.9.9,0,0,1-.28.68,1,1,0,0,1-.65.25A1.5,1.5,0,0,1,203.93,197.65Z"/><path class="cls-9" d="M210.23,204.23a.94.94,0,0,1-.28-.7A1.46,1.46,0,0,1,210,203l15.86-38.09a2,2,0,0,1,.55-.68,1.45,1.45,0,0,1,.94-.3h3a.94.94,0,0,1,.7.28,1,1,0,0,1,.28.7,1.25,1.25,0,0,1-.1.51l-15.94,38.1a1.81,1.81,0,0,1-.49.67,1.43,1.43,0,0,1-1,.3h-3A.91.91,0,0,1,210.23,204.23Z"/><path class="cls-9" d="M235.78,197.77a.87.87,0,0,1-.28-.68v-3.64a1.41,1.41,0,0,1,.28-.91,3.8,3.8,0,0,1,.89-.76L248,184.22l-11.28-7.55a4,4,0,0,1-.89-.77,1.46,1.46,0,0,1-.28-1v-3.59a.91.91,0,0,1,.28-.72.92.92,0,0,1,.65-.26,1.53,1.53,0,0,1,.93.42l15.81,10.77a3.89,3.89,0,0,1,1.05,1,2,2,0,0,1,.31,1.12v1.12a2,2,0,0,1-.33,1.12,3.83,3.83,0,0,1-1,.93l-15.81,10.82a1.47,1.47,0,0,1-.93.37A.91.91,0,0,1,235.78,197.77Z"/><path class="cls-4" d="M361.55,137.54l-3.93-2.71a2.15,2.15,0,0,1-1-1.78,32.27,32.27,0,0,0-.69-5.29,2.34,2.34,0,0,1,.46-2l3.18-3.59a2.47,2.47,0,0,0,.25-2.72l-3.94-6.87a2.39,2.39,0,0,0-2.44-1.11l-4.73.88a2.49,2.49,0,0,1-2-.58,30.39,30.39,0,0,0-4.18-3.26,2.27,2.27,0,0,1-1.07-1.8l-.34-4.75a2.38,2.38,0,0,0-1.76-2.11l-7.54-2a2.34,2.34,0,0,0-2.55.94l-2.7,3.93a2.39,2.39,0,0,1-1.83,1,29.48,29.48,0,0,0-5.25.7,2.51,2.51,0,0,1-2-.5l-3.64-3.16a2.49,2.49,0,0,0-2.71-.28l-6.83,4a2.39,2.39,0,0,0-1.16,2.46l.93,4.71a2.35,2.35,0,0,1-.62,2,29.27,29.27,0,0,0-3.27,4.22,2.34,2.34,0,0,1-1.75,1l-4.75.34a2.36,2.36,0,0,0-2.15,1.75l-2,7.54a2.31,2.31,0,0,0,1,2.55l3.93,2.7a2.35,2.35,0,0,1,1,1.88,27.6,27.6,0,0,0,.64,5.2,2.56,2.56,0,0,1-.48,2.08l-3.11,3.61a2.17,2.17,0,0,0-.27,2.67l3.87,6.81a2.42,2.42,0,0,0,2.46,1.16l4.66-.9a2.28,2.28,0,0,1,2,.63,28.35,28.35,0,0,0,4.19,3.23,2.49,2.49,0,0,1,1.1,1.84l.32,4.67a2.26,2.26,0,0,0,1.73,2.07l7.54,2a2.3,2.3,0,0,0,2.57-.89l2.65-3.87a2.41,2.41,0,0,1,1.87-1,26.19,26.19,0,0,0,5.25-.66,2.2,2.2,0,0,1,2,.47l3.6,3.15a2.36,2.36,0,0,0,2.68.23l6.86-3.9a2.44,2.44,0,0,0,1.15-2.43l-.93-4.71a2.54,2.54,0,0,1,.63-2,27.62,27.62,0,0,0,3.18-4.17,2.32,2.32,0,0,1,1.85-1.09l4.75-.34a2.34,2.34,0,0,0,2.1-1.72l2.05-7.54A2.37,2.37,0,0,0,361.55,137.54Zm-40.7,15.89a19.84,19.84,0,1,1,24.32-14A19.85,19.85,0,0,1,320.85,153.43Z"/><path class="cls-4" d="M149.24,235.14l-2.85-2.5a1.75,1.75,0,0,1-.62-1.5,25,25,0,0,0-.06-4.25,1.88,1.88,0,0,1,.55-1.54l2.85-2.55a2,2,0,0,0,.44-2.12l-2.48-5.8a1.9,1.9,0,0,0-1.82-1.1l-3.83.26a2,2,0,0,1-1.5-.64,24.08,24.08,0,0,0-3-3,1.84,1.84,0,0,1-.67-1.52l.16-3.79a1.9,1.9,0,0,0-1.19-1.84L129.44,201a1.87,1.87,0,0,0-2.1.51l-2.5,2.86a1.88,1.88,0,0,1-1.54.63,23.74,23.74,0,0,0-4.22.07,2,2,0,0,1-1.53-.58L115,201.64a2,2,0,0,0-2.12-.47l-5.76,2.49a1.89,1.89,0,0,0-1.15,1.84l.3,3.81a1.85,1.85,0,0,1-.66,1.49,22.58,22.58,0,0,0-3,3,1.92,1.92,0,0,1-1.48.66l-3.79-.17a1.88,1.88,0,0,0-1.86,1.18l-2.32,5.77a1.84,1.84,0,0,0,.55,2.11l2.85,2.5a1.84,1.84,0,0,1,.65,1.58,23.2,23.2,0,0,0,0,4.17,2,2,0,0,1-.57,1.6l-2.79,2.57a1.72,1.72,0,0,0-.46,2.08l2.43,5.75a1.94,1.94,0,0,0,1.85,1.14l3.76-.28a1.77,1.77,0,0,1,1.55.69,22,22,0,0,0,3,2.93,2,2,0,0,1,.69,1.56l-.17,3.72a1.8,1.8,0,0,0,1.18,1.8l5.77,2.31a1.85,1.85,0,0,0,2.12-.47l2.44-2.81a1.93,1.93,0,0,1,1.58-.65,21.13,21.13,0,0,0,4.21,0,1.75,1.75,0,0,1,1.57.56l2.56,2.82a1.85,1.85,0,0,0,2.09.43l5.79-2.45a1.92,1.92,0,0,0,1.13-1.81l-.3-3.81a2,2,0,0,1,.69-1.55,22.32,22.32,0,0,0,2.9-3,1.85,1.85,0,0,1,1.56-.7l3.79.17a1.87,1.87,0,0,0,1.82-1.16l2.31-5.78A1.87,1.87,0,0,0,149.24,235.14ZM115.6,244a15.8,15.8,0,1,1,20.52-8.83A15.8,15.8,0,0,1,115.6,244Z"/><path class="cls-10" d="M138.89,9.9v87A9.88,9.88,0,0,1,129,106.8H9.9A9.88,9.88,0,0,1,0,96.94V9.9A9.88,9.88,0,0,1,9.9,0H129A9.89,9.89,0,0,1,138.89,9.9Z"/><path class="cls-5" d="M16.73,10.3a2.52,2.52,0,1,1-2.52-2.52A2.51,2.51,0,0,1,16.73,10.3Z"/><path class="cls-5" d="M24.76,10.3a2.52,2.52,0,1,1-2.52-2.52A2.51,2.51,0,0,1,24.76,10.3Z"/><path class="cls-5" d="M32.79,10.3a2.52,2.52,0,1,1-2.52-2.52A2.51,2.51,0,0,1,32.79,10.3Z"/><path class="cls-5" d="M57.87,25.41H43.46a1,1,0,0,1,0-2.05H57.87a1,1,0,1,1,0,2.05Z"/><path class="cls-5" d="M36.94,25.41H18.19a1,1,0,1,1,0-2.05H36.94a1,1,0,1,1,0,2.05Z"/><path class="cls-5" d="M88.26,33.8H74.63a1,1,0,1,1,0-2H88.26a1,1,0,0,1,0,2Z"/><path class="cls-5" d="M68.85,33.8H54.1a1,1,0,1,1,0-2H68.85a1,1,0,1,1,0,2Z"/><path class="cls-5" d="M48.17,33.8H25.48a1,1,0,1,1,0-2H48.17a1,1,0,1,1,0,2Z"/><path class="cls-5" d="M117.47,42.2h-31a1,1,0,1,1,0-2.05h31a1,1,0,1,1,0,2.05Z"/><path class="cls-5" d="M81.84,42.2H63.4a1,1,0,1,1,0-2.05H81.84a1,1,0,1,1,0,2.05Z"/><path class="cls-5" d="M56.67,42.2H25.48a1,1,0,1,1,0-2.05H56.67a1,1,0,0,1,0,2.05Z"/><path class="cls-5" d="M81.44,50.59h-56a1,1,0,1,1,0-2.05h56a1,1,0,1,1,0,2.05Z"/><path class="cls-5" d="M117.47,59H83a1,1,0,0,1,0-2h34.43a1,1,0,1,1,0,2Z"/><path class="cls-5" d="M73.66,59h-17a1,1,0,1,1,0-2h17a1,1,0,1,1,0,2Z"/><path class="cls-5" d="M51.37,59H25.48a1,1,0,1,1,0-2H51.37a1,1,0,1,1,0,2Z"/><path class="cls-5" d="M75.11,67.37h-11a1,1,0,0,1,0-2.05h11a1,1,0,0,1,0,2.05Z"/><path class="cls-5" d="M58.43,67.37H25.48a1,1,0,1,1,0-2.05h33a1,1,0,1,1,0,2.05Z"/><path class="cls-5" d="M63.4,75.76H45a1,1,0,1,1,0-2.05H63.4a1,1,0,1,1,0,2.05Z"/><path class="cls-5" d="M39.67,75.76H18.19a1,1,0,1,1,0-2.05H39.67a1,1,0,1,1,0,2.05Z"/><path class="cls-5" d="M80.32,84.16H67.89a1,1,0,1,1,0-2.06H80.32a1,1,0,0,1,0,2.06Z"/><path class="cls-5" d="M61.48,84.16H24.76a1,1,0,0,1,0-2.06H61.48a1,1,0,0,1,0,2.06Z"/><path class="cls-5" d="M74.55,92.55H52.1a1,1,0,1,1,0-2H74.55a1,1,0,0,1,0,2Z"/><path class="cls-5" d="M45.28,92.55H24.76a1,1,0,1,1,0-2H45.28a1,1,0,1,1,0,2Z"/></g></g></g></svg>