<svg xmlns="http://www.w3.org/2000/svg" xmlns:xlink="http://www.w3.org/1999/xlink" viewBox="0 0 445.28 422.5"><defs><style>.cls-1{isolation:isolate;}.cls-2{fill:#3380a6;}.cls-3{fill:#fff;}.cls-4,.cls-5{fill:#cac2d3;}.cls-4,.cls-8{mix-blend-mode:multiply;}.cls-5{mix-blend-mode:soft-light;}.cls-6{fill:#e7484f;}.cls-7{fill:#353535;}.cls-9{fill:#6d6d6c;}.cls-10{fill:#d9d8d8;}.cls-11{fill:#9e9e9e;}.cls-12{fill:#46335a;}.cls-13{mix-blend-mode:screen;opacity:0.44;}</style></defs><g class="cls-1"><g id="Layer_2" data-name="Layer 2"><g id="phone"><path class="cls-2" d="M217.13,161.24A24.13,24.13,0,0,1,193,185.37H175.7l-23.83,40-26.05-40H24.13A24.13,24.13,0,0,1,0,161.24V56A24.12,24.12,0,0,1,24.13,31.9H193A24.12,24.12,0,0,1,217.13,56Z"/><rect class="cls-3" x="30.05" y="58.3" width="157.04" height="87.55"/><polygon class="cls-4" points="187.09 146.87 30.05 146.87 30.05 59.31 108.57 103.09 187.09 59.31 187.09 146.87"/><polygon class="cls-5" points="187.09 145.84 30.05 145.84 108.57 102.06 187.09 145.84"/><circle class="cls-6" cx="182.56" cy="67.98" r="28.27"/><path class="cls-3" d="M178.54,56.38a8.84,8.84,0,0,1-1.68.63c-.69,0-.57-1.07-.51-1.44.13-1.82,1.38-2.38,2.88-3.26,2.07-1.19,9.14-5.38,10.89-5.38S193,50.31,193,51.25c0,1.82,0,1.63-9.82,18.34-2.19,3.69-7.33,12.52-7.33,16.71,0,.75.19,1.44.19,2.19a.79.79,0,0,1-.87.88,3.89,3.89,0,0,1-1.32-.57c-2.38-1.31-5.07-1.75-5.07-5s2.69-10.08,4.38-12.9a191.79,191.79,0,0,1,11.46-16.65l-.13-.12Z"/><polygon class="cls-7" points="117.09 358.7 114.5 356.28 116.92 353.69 115.2 352.07 112.77 354.67 110.18 352.24 108.57 353.97 111.16 356.39 108.73 358.98 110.46 360.6 112.89 358.01 115.47 360.43 117.09 358.7"/><path class="cls-7" d="M164.87,399a2.46,2.46,0,1,1-3.48.12,2.46,2.46,0,0,1,3.48-.12"/><path class="cls-7" d="M163.12,403.8a3,3,0,0,1-2.93-2.74,4.63,4.63,0,0,0-4.57,1.33l6.47,6.06A4.63,4.63,0,0,0,163.12,403.8Z"/><path class="cls-7" d="M86.25,332.62a.32.32,0,0,0-.31-.32l-3.64-.06a.32.32,0,0,0-.32.32L82,334a.31.31,0,0,0,.31.32l3.63.05a.32.32,0,0,0,.33-.31Z"/><path class="cls-7" d="M93.26,331.62a3.64,3.64,0,0,0-.71-.93A3.52,3.52,0,0,0,87,334.91a3.64,3.64,0,0,0,.71.93,3.52,3.52,0,0,0,5.52-4.22Zm-1.91,3.91a2.58,2.58,0,0,1-3-.39,2.48,2.48,0,0,1-.51-.68A2.57,2.57,0,0,1,89,331a2.56,2.56,0,0,1,3,.39,2.51,2.51,0,0,1,.52.68A2.54,2.54,0,0,1,92.6,334,2.51,2.51,0,0,1,91.35,335.53Z"/><path class="cls-7" d="M66.44,311.86l-.39-2.33,1.61-1.72-1-.92-.92,1-.41-2.42-6.46-.64-.13,1.33h0l.69.07-3.33,3.56L61.67,315,65,311.39l.12.69Zm-4.81,2-1.25-1.17,1.93-2.06-2-1.83-1.93,2.07-1.25-1.17,3.15-3.37,3.82.38.63,3.79Z"/><path class="cls-7" d="M143,378c.11.1.21.21.32.33a2.75,2.75,0,0,1-.21,3.54l-.39.41c-1.23,1.12-3.53,1.76-7.94,1.14-.92-4.36-.44-6.71.6-8l.39-.42a2.74,2.74,0,0,1,3.51-.45,3.63,3.63,0,0,1,.35.3,2.72,2.72,0,0,1,.84,2.48A2.69,2.69,0,0,1,143,378m-.75.8c-.48-.44-.81-.48-1.65-.38l-1.3.16.08-1.31c0-.84,0-1.17-.5-1.62a3.2,3.2,0,0,0-.27-.22,1.67,1.67,0,0,0-2.07.35l-.33.36c-.89,1.14-1.06,3.26-.51,6.29,3.06.34,5.16,0,6.25-.93l.32-.35a1.66,1.66,0,0,0,.22-2.09h0a3.08,3.08,0,0,0-.24-.26Z"/><g class="cls-8"><path class="cls-2" d="M178.19,409.27a20.22,20.22,0,0,1-28.56,1.31l-95.94-88.9a20.23,20.23,0,0,1-.86-28.58L271,57.63a20.23,20.23,0,0,1,28.56-1.32l95.94,88.91a20.21,20.21,0,0,1,.85,28.57Z"/></g><path class="cls-3" d="M401.24,144.23,300.15,50.55a21,21,0,0,0-29.7,1L46.69,293A21,21,0,0,0,48,322.66l101.09,93.69a21,21,0,0,0,29.7-1L402.54,173.92A21,21,0,0,0,401.24,144.23Zm-223,265a20.22,20.22,0,0,1-28.56,1.31l-95.94-88.9a20.23,20.23,0,0,1-.86-28.58L271,57.63a20.23,20.23,0,0,1,28.56-1.32l40.49,37.53a3.21,3.21,0,0,1,.23,4.48l-.06.06a7,7,0,0,0,10.43,9.29l0,0a2.88,2.88,0,0,1,4.08-.18l40.75,37.76a20.21,20.21,0,0,1,.85,28.57Z"/><path class="cls-9" d="M148.76,416.7,47.66,323a21.52,21.52,0,0,1-1.32-30.37L270.09,51.18a21.52,21.52,0,0,1,30.38-1l101.1,93.68a21.52,21.52,0,0,1,1.32,30.37L179.14,415.71A21.51,21.51,0,0,1,148.76,416.7ZM299.82,50.9a20.55,20.55,0,0,0-29,.94L47,293.3a20.56,20.56,0,0,0,1.27,29L149.41,416a20.56,20.56,0,0,0,29-.93L402.19,173.59a20.55,20.55,0,0,0-1.27-29Zm-150.51,360L53.37,322a20.71,20.71,0,0,1-.89-29.25L270.69,57.3A20.72,20.72,0,0,1,299.92,56l40.5,37.53a3.68,3.68,0,0,1,.26,5.15,6.51,6.51,0,0,0,.37,9,6.5,6.5,0,0,0,9.29-.25,3.41,3.41,0,0,1,2.38-1.12,3.29,3.29,0,0,1,2.39.88l40.75,37.77a20.72,20.72,0,0,1,.89,29.25L178.54,409.59A20.7,20.7,0,0,1,149.31,410.93Zm150-354.26A19.75,19.75,0,0,0,271.39,58L53.19,293.43A19.75,19.75,0,0,0,54,321.32L150,410.23a19.77,19.77,0,0,0,27.88-1.29L396,173.47a19.76,19.76,0,0,0-.83-27.9l-40.75-37.76a2.38,2.38,0,0,0-1.7-.63,2.43,2.43,0,0,0-1.69.79,7.46,7.46,0,0,1-11.17-9.9,2.74,2.74,0,0,0-.14-3.88Z"/><path class="cls-10" d="M348.31,106.35a4.2,4.2,0,1,1-.23-5.94A4.2,4.2,0,0,1,348.31,106.35Z"/><path class="cls-11" d="M342.23,106.72a4.4,4.4,0,1,1,6.23-.23A4.4,4.4,0,0,1,342.23,106.72Zm5.71-6.15a4,4,0,1,0,.21,5.64A4,4,0,0,0,347.94,100.57Z"/><g class="cls-8"><path class="cls-10" d="M347.47,105.58a3.06,3.06,0,1,1-.16-4.33A3.06,3.06,0,0,1,347.47,105.58Z"/><path class="cls-11" d="M343,105.85a3.22,3.22,0,1,1,4.55-.17A3.21,3.21,0,0,1,343,105.85Zm4.17-4.49a2.91,2.91,0,1,0,.15,4.11A2.92,2.92,0,0,0,347.21,101.36Z"/></g><g class="cls-8"><path class="cls-12" d="M346.87,105a2.24,2.24,0,1,1-.12-3.17A2.24,2.24,0,0,1,346.87,105Z"/><path class="cls-11" d="M343.62,105.22a2.36,2.36,0,1,1,3.34-.12A2.36,2.36,0,0,1,343.62,105.22Zm3.06-3.29a2.13,2.13,0,1,0,.11,3A2.14,2.14,0,0,0,346.68,101.93Z"/></g><g class="cls-13"><path class="cls-2" d="M178.44,409.7,396.65,174.23a20.22,20.22,0,0,0-.86-28.58l-95.94-88.9a18.44,18.44,0,0,0-1.69-1.4L152.57,413.1A20.29,20.29,0,0,0,178.44,409.7Z"/></g><path class="cls-12" d="M413.66,134l-3.73,7.16a22.1,22.1,0,0,1,9.19,29.28l7.18,3.74A30.24,30.24,0,0,0,413.66,134Z"/><path class="cls-12" d="M421,120.06l-3.72,7.16a37.93,37.93,0,0,1,15.88,50.54l7.17,3.73A46,46,0,0,0,421,120.06Z"/><path class="cls-12" d="M27.22,309.88a21.9,21.9,0,0,1,5.08-15.73l-6.09-5.29a30.24,30.24,0,0,0,3,42l5.31-6.1A22,22,0,0,1,27.22,309.88Z"/><path class="cls-12" d="M20.39,283.82l-6.08-5.3a46,46,0,0,0,4.52,64.24l5.3-6.1A37.92,37.92,0,0,1,20.39,283.82Z"/><rect class="cls-12" x="209" y="13.6" width="34.26" height="6.61" transform="translate(114.49 214.29) rotate(-64.78)"/><rect class="cls-12" x="200.92" y="2.17" width="6.61" height="27.63" transform="translate(6.64 70.07) rotate(-19.78)"/><rect class="cls-12" x="226.61" y="29.73" width="27.63" height="6.61" transform="translate(3.01 83.33) rotate(-19.78)"/><image width="1183" height="1253" transform="translate(336.93 89.41) rotate(46.15) scale(0.08)" xlink:href="../../../../../../Desktop/3tone-digital-logo-inverse.png"/></g></g></g></svg>