<svg xmlns="http://www.w3.org/2000/svg" viewBox="0 0 799.45 910.62"><defs><style>.cls-1{fill:#86bdbe;}.cls-2{fill:#aab5d2;}.cls-3{fill:#fff;}.cls-4{fill:#2a3858;}.cls-5{fill:#f64596;}.cls-6{fill:#80ad84;}.cls-7{fill:#097f69;}.cls-8{fill:#6fa6a4;}.cls-9{fill:#c2a09c;}.cls-10{fill:#a6c8c7;}.cls-11{fill:#32807d;}.cls-12{fill:#a06a63;}.cls-13{fill:#8d88a6;}</style></defs><g id="Layer_2" data-name="Layer 2"><g id="Layer_1-2" data-name="Layer 1"><path class="cls-1" d="M506.68,516.75l.17-.7s-2.23-25.51-2.39-38.3c-.47-38-1.07-300-1.07-300H282.22s-.44,183.16-.92,272c-.11,19.37-1.34,38.74-2.12,58.11-.11,2.8-.85,8.87-.85,8.87Zm11.93,0,200.32.26-2.44-339.51H520.39ZM267.07,177.6l-182.77.14L82.44,516.25H267.53s-.5-3.85-.58-5.68C266.4,498,267.07,177.6,267.07,177.6ZM381.69,157c-18.08-27.44-31.18-56.77-43-86.67a9.29,9.29,0,0,0-1.44.44c-1.11.62-2.22,1.24-3.28,1.94-27.4,18-43.78,43-50.82,74.08a24.7,24.7,0,0,0-.4,10.21Zm29.46-.06c6.05.85,89.27.58,92-.28-.12-1.67-.14-3.4-.39-5.11a102,102,0,0,0-8-26.74c-10.14-22.93-25.85-41.25-48-54.24-.92-.54-1.94-.93-3.39-1.62C435.65,99.54,424.32,128.37,411.15,157ZM348.62,64.82c.48,1.27.68,2,1,2.66,5,10,9.77,20.24,15.16,30.1a626.48,626.48,0,0,1,27.84,58,14.22,14.22,0,0,0,.92,1.63h5.84L432.6,63.54C404.44,52.8,376.68,53.11,348.62,64.82Z"/><path class="cls-2" d="M525.4,496.57l.13,88.66c0,1.09.4,2,.89,2l57,.12c.49,0,.89-.89.88-2l-.16-89.15c0-1.1-.4-2-.89-2l-56.93.38C525.79,494.58,525.4,495.47,525.4,496.57Z"/><path class="cls-3" d="M424,359.57l.58,176.06a4,4,0,0,0,3.95,3.93l253.22.24a4,4,0,0,0,3.95-4l-.72-177a4,4,0,0,0-4-3.94l-253.08.75A4,4,0,0,0,424,359.57Z"/><polygon class="cls-4" points="674.32 493.54 674.01 365.65 435.34 365.44 436.02 494.2 674.32 493.54"/><path class="cls-5" d="M567.56,414.69a6.28,6.28,0,0,1,.88.33c2.09,1.16,4.21,2.26,6.24,3.52,7.38,4.62,14.78,9.2,22.06,14,4.77,3.13,9.36,6.55,14,9.88a10.12,10.12,0,0,1,1.72,1.74,1,1,0,0,1,.08.9.91.91,0,0,1-.81.34,6,6,0,0,1-1.59-.74c-4-2.6-8-5.23-12-7.84-1.73-1.13-3.51-2.19-5.23-3.33-6-3.93-11.91-7.84-17.82-11.84-2.2-1.49-4.28-3.18-6.39-4.81A2.17,2.17,0,0,1,567.56,414.69Z"/><path class="cls-5" d="M592.79,417.81a13.57,13.57,0,0,1,2.21.71c2.17,1.11,4.35,2.21,6.43,3.5,4.07,2.51,8.07,5.15,12.1,7.74,2.06,1.32,4.16,2.58,6.17,4,1.38.95,2.66,2.08,4,3.15a4.15,4.15,0,0,1,.77.85c.66.9.76,1.67.33,2.28s-1.26.86-2.32.29a48.77,48.77,0,0,1-4.63-2.72c-5.52-3.8-11-7.61-16.47-11.56-2.55-1.85-4.9-4-7.3-6.06a15.31,15.31,0,0,1-1.5-1.7Z"/><path class="cls-6" d="M.54,464.56c6.58-23.45,37.16-4,67.52-18.51,9-4.33,28.83-4.68,30.77,7.72A12.9,12.9,0,0,1,90,465.24c-8.71,3.12-15.29,8.92-21.65,15.34C49.91,502.24-6,488,.54,464.56Z"/><path class="cls-6" d="M283.46,458.06c8.09,18.32-19.49,2.45-30.58,17.08-5.37,7.09-13,33.86-32.94,28.6-10.59-2.8-10.24-21.55-3.21-37C227.14,443.78,274.75,438.35,283.46,458.06Z"/><path class="cls-6" d="M203.35,363.47c2.8,61.37-43.22,44.36-38.7,68.24,1.93,20.94,19.07,36.39,22.24,56.77.77,6.84-5.17,11.59-12.06,10.94-11.65-1.07-18.08-11.91-23.54-20.91-10.28-22.57-28.48-39.85-39.82-61.69C97.11,382.27,142,386.55,149.5,367c7.71-18.73-1.66-41.47,13.13-57.31C190.15,288.73,205.7,343.11,203.35,363.47Z"/><path class="cls-7" d="M156.8,441.74c-.52-19.87,9.64-30.33,24.31-39.14,29.67-20.15-9-57.36,35-91.89,17.06-15.58,56.35-11.78,53.4,17.06-2.25,19.16-16.71,30.93-31.69,41-17,12.3-3.5,33.36-21.6,48.43-13.43,12,4.24,28.73-2.46,43.6C198.42,498.83,158.28,469.91,156.8,441.74Z"/><path class="cls-7" d="M128.67,497.53c-16.29-4.3-22.41-10.68-31.4-1.43-16.7,13.79-25,39.6-48.79,42.51-20.1,3.66-27.13-23-9.65-30.34,17.24-6.33,32.32-7.76,35.7-28.84,4.83-41.17,64.51-41.64,78.18-6.52C159.47,489.45,145,501.83,128.67,497.53Z"/><path class="cls-7" d="M84.94,400c-10.38-17.38-15.63-27,2.89-44,17-19.78,55.72-14.42,53.61,16-2.39,20.44-33.6,3.06-37.64,28.8.13,7.44,6.25,12.65,11.31,17.42,16.38,20.71-24.75,26.93-38.35,23-20.46-2.29-34.44-35.57-7.7-40.25C74.69,400.56,78.93,400.73,84.94,400Z"/><path class="cls-8" d="M165.52,524.2c15,0,26.72-1.19,29.59,8.07s-4.68,51-30,51-32-41.42-30.52-49.33S150.5,524.2,165.52,524.2Z"/><path class="cls-7" d="M165.62,529.63c-5-6.84-5-14.19-2-21.72,1.27-3.28,2.86-6.46,4.41-9.62a16,16,0,0,0,.3-14.67c-6.05-12.76,2.48-2.77,3.15-1.54,2.91,5.36,3.54,10.93.9,16.65-1.18,2.56-2.17,5.22-3.4,7.76-2.87,6-3.78,12-1.88,18.5C167.51,526.43,169.58,535.62,165.62,529.63Z"/><path class="cls-6" d="M174.88,518.36c1.45-5.27,5-10.05,8.78-13.82,11.68-11.63,13.46-24.38,7-39.19-3.43-7.87-6.9-16.24-4.69-25,1.45-5.76,4.4-11.27,7.37-16.5,2.36-4.15,5.67-7.8,8.76-11.49,12.67-15.14,16.32-32.83,15.23-52a71.67,71.67,0,0,1,.57-14.79c1.5-9.85,7.78-16.47,16.2-21.13,3.56-2,13.78-5.07,15-3.71,1.87,1.48-6.1,4.36-8.79,5.58-15.14,6.86-20.76,19.29-19,35.84,1.7,16.06-.91,31.7-8.87,46-2.95,5.28-7.05,9.91-10.61,14.85-2.07,2.87-4.28,5.66-6.16,8.65a26.17,26.17,0,0,0-2.62,23.59c2.31,6.66,4.8,13.35,6.13,20.24,2.08,10.71-.36,20.68-8.13,28.69-5.16,5.31-11.63,10.08-13.35,17.41C176.06,528.58,170.42,534.64,174.88,518.36Z"/><path class="cls-6" d="M152,518.94c.18-10.82-2.55-20.66-9.35-29.26-10.09-12.78-22.19-16.13-37.34-10.15a47.13,47.13,0,0,0-21.75,17c-6.11,8.63-12.88,16.82-19.61,25-3.25,3.94-7.82,5.42-13,4.88-8.06-.86-8.27-2.91-.58-2.91,10.27,0,15-9,20.39-15.92,3.65-4.66,6.49-9.95,9.94-14.79,9.56-13.4,23-20.24,39.18-20.34,14.89-.09,24.86,8.8,31.22,21.39,4.83,9.55,7.66,19.8,4.17,30.68C155.18,524.91,151.55,532.52,152,518.94Z"/><path class="cls-7" d="M174.59,321.76c2.52,3,6.38,29.63,3.3,42.42S167,386.31,157.17,394.42a39.25,39.25,0,0,0-12.28,17.46c-2.2,6.23-1.37,11.88,2,17.41,2.41,4,7.25,13,4.72,14-2.26.87-16-23.68-9.38-36.45,3.09-6,7.41-12,12.64-16.19,18.35-14.68,22.3-34.11,20.35-55.87C174.81,330.67,173.31,320.22,174.59,321.76Z"/><path class="cls-6" d="M127.32,363.42c-1.77.66-3.5,1.44-5.31,2-20.31,5.88-21.29,16.81-18.19,31.63a36.49,36.49,0,0,1,1.09,7.52c0,7.36-2.4,13.44-9.43,17.2C90.8,424.23,86,427,86,433.54c-3.75-2.53-4.67-5.6-2-8.48a31.68,31.68,0,0,1,8.83-7.1c7.08-3.48,8.94-8.81,7.56-17.86-.72-4.72-2-9.42-2.14-14.16C97.89,375.18,105,366,115.49,363.1a54.38,54.38,0,0,1,7.87-1.61c1.28-.16,2.65.43,4,.68C127.33,362.58,127.32,363,127.32,363.42Z"/><path class="cls-7" d="M89.44,451.83c-2.46.29-4.93.52-7.38.88-9,1.29-16.38,6-23.67,10.91-6.78,4.57-14.13,7.87-22.31,8.67a26.88,26.88,0,0,1-10.89-.86c-11.58-3.8-9.11-8.88-1.71-5.42,8.68,4.13,17,1.88,24.87-1.93,4.69-2.26,8.95-5.41,13.33-8.27,6.79-4.42,11.64-7,19.95-6.41C83.58,449.54,90.17,450.24,89.44,451.83Z"/><path class="cls-7" d="M222.77,488.62c-1.33-.67,1.86-4.3,10.75-21.15,8-15.22,25.66-10.56,28.6-10.45,7.89.3,11.42-2,11.88-.52s-4.05,3.67-8.06,3.27c-21.28-2.1-25.66,3.16-30.77,13.68C231.06,481.91,224.09,489.3,222.77,488.62Z"/><path class="cls-2" d="M597.33,0c5.33,0,3.3,59.29,4,107.46.51,35.68.86,66.74-1.9,66.74-3.44,0-4.34-48.6-4.7-94C594.4,40.21,592,0,597.33,0Z"/><path class="cls-3" d="M572.16,222.9c-7.48-15.49,1-30.45,15.15-36.28s29.31,0,36.28,15.14c7.58,16.52-2.64,30.13-15.15,36.28S579.65,238.39,572.16,222.9Z"/><path class="cls-4" d="M579.31,177.28c7.9-19.12,9.28-43.41,10.46-51.91s14.26-10,16.42,0,8.67,41,13.34,55.9,59.89,14.53,58.34,32.46c-.29,3.39-42.7.73-84.15.29-39.08-.41-77,1.6-77-1.47C516.69,199.28,571.4,196.4,579.31,177.28Z"/><path class="cls-2" d="M286.7,671.87c-6.44,1.3-133.54,1.3-140.92,0s-7.83-7.18,0-8.07,133.54-.57,140.92,0S293.15,670.56,286.7,671.87Z"/><path class="cls-2" d="M253.46,834.69c-3.88-6.83-69.31-146.59-72.55-155s-1.89-9.06,2.53-.63,69,146.73,72.54,155S257.33,841.51,253.46,834.69Z"/><path class="cls-2" d="M236.67,836.08c-3.81-6.67-67.81-143.4-71-151.6s-1.81-8.89,2.52-.65,67.49,143.55,71,151.61S240.48,842.76,236.67,836.08Z"/><path class="cls-2" d="M217.08,835c-3.23-5.45-56-118.12-58.48-124.93s-1.15-7.48,2.48-.72,55.67,118.27,58.49,124.93S220.32,840.46,217.08,835Z"/><path class="cls-2" d="M259.54,805.58c-3.23-5.46-56-118.13-58.48-124.94s-1.15-7.48,2.48-.72S259.21,798.2,262,804.86,262.78,811,259.54,805.58Z"/><path class="cls-2" d="M263.57,774.5c-2.56-4-42-88.22-43.71-93.37s-.37-5.82,2.44-.81S264,768.68,266,773.69,266.13,778.51,263.57,774.5Z"/><path class="cls-2" d="M267.46,742.22c-1.87-2.54-27.73-57.78-28.67-61.25s.42-4.12,2.39-.9S268.6,738,269.85,741.32,269.33,744.76,267.46,742.22Z"/><path class="cls-2" d="M272.38,711.63c-1.27-1.24-15.12-30.84-15.37-32.82s1.12-2.63,2.36-1,14.8,31,15.36,32.81S273.64,712.87,272.38,711.63Z"/><path class="cls-2" d="M185.59,841.22c-1.27-1.24-15.12-30.84-15.36-32.82s1.11-2.63,2.35-1,14.8,31,15.36,32.82S186.85,842.46,185.59,841.22Z"/><path class="cls-2" d="M205.17,848.44c-2.56-4-42-88.21-43.71-93.37s-.38-5.82,2.44-.81,41.66,88.37,43.71,93.37S207.73,852.45,205.17,848.44Z"/><path class="cls-2" d="M180.63,830.58c3.64-6.32,64.44-136.2,67.41-144s1.63-8.48-2.5-.66-64.13,136.35-67.42,144S177,836.91,180.63,830.58Z"/><path class="cls-2" d="M195.5,836.08c3.8-6.67,67.81-143.4,71-151.6s1.81-8.89-2.52-.65-67.5,143.55-71,151.61S191.69,842.76,195.5,836.08Z"/><path class="cls-2" d="M215.08,835c3.24-5.45,56-118.12,58.49-124.93s1.15-7.48-2.49-.72S215.42,827.63,212.6,834.29,211.85,840.46,215.08,835Z"/><path class="cls-2" d="M172.76,805.35c3.33-5.74,58.66-123.93,61.34-131s1.41-7.76-2.36-.64-58.36,124.07-61.34,131S169.42,811.1,172.76,805.35Z"/><path class="cls-2" d="M168.6,774.5c2.56-4,42-88.22,43.71-93.37s.37-5.82-2.44-.81-41.67,88.36-43.71,93.37S166,778.51,168.6,774.5Z"/><path class="cls-2" d="M164.71,742.22c1.87-2.54,27.73-57.78,28.67-61.25s-.42-4.12-2.4-.9S163.57,738,162.31,741.32,162.84,744.76,164.71,742.22Z"/><path class="cls-2" d="M159.79,711.63c1.26-1.24,15.12-30.84,15.36-32.82s-1.12-2.63-2.36-1-14.8,31-15.36,32.81S158.53,712.87,159.79,711.63Z"/><path class="cls-2" d="M246.58,841.22c1.26-1.24,15.12-30.84,15.36-32.82s-1.12-2.63-2.36-1-14.8,31-15.36,32.82S245.31,842.46,246.58,841.22Z"/><path class="cls-2" d="M231.67,838.46c2.36-3.57,37.72-79.11,39.21-83.76s.14-5.32-2.42-.84-37.41,79.26-39.21,83.76S229.32,842,231.67,838.46Z"/><path class="cls-2" d="M164.6,831.41c-.87-3.48-6.58-35.09-10.92-72.07-4.37-37.29-7.69-76.31-7.86-80.46-.33-8.26,2.41-9.08,3.86-.45.72,4.31,4.53,44.47,8.84,81.41s10.67,72.39,11,76.5C170.22,844.55,168,844.84,164.6,831.41Z"/><path class="cls-2" d="M267.13,840.93c.85-3.69,6.89-42.35,11.44-81.24,4.6-39.22,8.41-80.34,8.51-84.71.19-8.7-3.43-9.65-5.06-.59-.82,4.53-4.59,46.79-9.12,85.64s-10.5,76-10.83,80.31C261.42,849,265.43,848.35,267.13,840.93Z"/><path class="cls-2" d="M249.77,864c-13.42,1.48-57.47,1.87-67.71,0-9.88-1.81-11.87-12-13.49-17.07-.39-1.21,0-2.89,5.18-2.89h87.79c1.29,0,4.76,3.54,4.34,4.77C264.14,853.94,260.1,862.89,249.77,864Z"/><path class="cls-2" d="M765.27,865.49c-2.82,3.81-5.67,4-8.55.09-9.47-30.85-16.85-62.29-25.5-93.35-13.12-49.65-26.44-99.27-39.29-149-1.15-9-7.26-20.77-2.92-29.11,8.4,2.62,14.34,39.39,18.27,49C727.3,717.18,746.7,791.11,765.27,865.49Z"/><path class="cls-2" d="M116.7,599.89C96.34,691,75.3,780.62,56.44,871.77c-.56,7-12,5.89-9.55-1.5C68,780.83,86.32,690.93,106.57,601.35,108,594.39,112.82,592.38,116.7,599.89Z"/><polygon class="cls-1" points="2.55 609.38 799.45 609.94 799.38 584.48 2.55 583.82 2.55 609.38"/><path class="cls-2" d="M404.54,874.83c-2.17-7.27,20.41-11.6,21.23-5.94,1.4,9.69,20.69,22.57,16.13,29.83C441,900.15,413.39,913,405.72,907,398.24,901.1,406.41,881.13,404.54,874.83Z"/><path class="cls-2" d="M468.94,866.3c-9.68-14.74-23.26-8.92-22.55-.07.88,11.08-3.79,10.93,1.07,25.56,4.42,13.32,28.52,3.54,30.42,2.68,10-4.51,18.07-15.48,14.85-24.13C490.79,865.15,470.48,868.65,468.94,866.3Z"/><path class="cls-4" d="M464.91,761.77c-4-27.6-29-36.23-32.7-34.67-14.14,8.25-6.44,141.79-6.44,141.79-1.51,5.57-13.4,6.35-20.95,7.55-6.08,1-44.8-125.7-49.31-155.63-5.66-37.46,6-50.61,68.06-54.44,41-2.52,94.81,17.56,104.34,45.8,12.74,37.74-37.71,133.19-47.54,155.08-3.31,7.38-33.64,4.5-34-1C444.3,832.44,466.88,775.38,464.91,761.77Z"/><path class="cls-4" d="M512.05,657.62c3.36,16.35,2.77,64.64-29.18,75.45-26,8.8-43.38-1.35-52.37-1.35s-35.59,8-55.22-.88c-28.66-13-27.31-64.58-23.23-80.65,6.81-26.81,34.18,1,78.45,1S506,628.37,512.05,657.62Z"/><path class="cls-9" d="M570.66,585.57h41.9c6.82,0,.86-7.65-.5-10-2.69-4.71-16.13-13.69-26.77-13.69-3,0-19.29,6-23.61,12.72C557.9,580.49,565.67,585.57,570.66,585.57Z"/><path class="cls-9" d="M419.64,366.73c-10.27-25.54,2.84-62.92,21-73.05s49.51.41,59.09,25.43c10.44,27.25-1.21,74.9-14.18,85.37C470.53,416.58,429.91,392.26,419.64,366.73Z"/><path class="cls-9" d="M411.71,425.37c3.53-13.47,9.48-12.59,6.58-62.51-.53-9.15,54.31,27.09,50.07,37.52-5.24,12.86,0,26.79,0,26.79C464,441.37,408.17,438.84,411.71,425.37Z"/><path class="cls-4" d="M409.26,357.25c-13.66-34.61,3.49-52.69,21.57-62.23,14.67-7.73,27.46-8.8,51,1.67,13.69,6.1,14.57-3.64,18.21,4.1s.76,15.25-13.31,29.13c-6.11,6-.56,19.1-5.64,23.91-3.59,3.4-9.56-18.44-14.08-5.47-6.45,18.49-6.42,36.72-13,41.69s-31.24,2.63-36.53-.33C417.49,389.72,414.58,370.74,409.26,357.25Z"/><path class="cls-4" d="M475.15,345.42c-3.82-3.69-9.44-1-10.2,4-1,7.72,7.06,20.72,8.18,20.18s-6.64-13.83-5.32-19.34c.65-2.73,3.43-4.49,6-1.89,2.2,2,4.19,7,5.95,6.53C480.73,354.6,479,349.12,475.15,345.42Z"/><path class="cls-10" d="M554,511.74c-9.43-33.57-13.2-56.38-26.12-70.47C509.76,421.46,478.5,418,431.35,418c-23.52,0-45.39,2.72-62,11.18-26.53,13.48-42.86,39.92-54.71,80.85-19.29,66.59-12.18,102.15,3.59,108.87,14.55,6.2,35.31-16,39.3-26.87s6.9-6.38,5.63,4.32c-2.79,23.51-5.95,28.36-11.08,52.84-5.58,26.67,161.93,21.92,159.45,3.19-5-37.91-4.95-40.52-6.66-66.6-.39-5.92,1.71-10.33,4.63-5.06,4.25,7.66,10.69,45.3,35.51,40.3C572,615.53,563,543.5,554,511.74Z"/><path class="cls-8" d="M541.87,625.56c32.83,1.69,52.18-39,50.76-44.22C589.81,571,578.8,570.19,571.94,571c-10.1,1.18-15.28-2.16-28.52,12.22S517.15,624.28,541.87,625.56Z"/><path class="cls-11" d="M494,440.7c-5.23,33.26-47.48,65.16-77.38,63.84s-51.09-28.82-51.53-61.76c-.24-18.46,2.77,14.27,14.61,34.76,9.2,15.93,26.61,19.08,39.69,19.65,13.94.62,37.43-8,52-25.55C488,451.58,496.73,423.4,494,440.7Z"/><path class="cls-12" d="M512.69,868.13q-13.56-55.95-27.18-111.9a32.05,32.05,0,0,0-1.41-4.46c-1-2.56-2.44-5.22-5.74-4.29s-3.89,3.76-3.21,6.83c.79,3.51,1.65,7,2.51,10.48q15.1,60.88,30.26,121.76c1,3.91,3.84,20.36,8.53,20.36S514.81,876.91,512.69,868.13Z"/><path class="cls-12" d="M341.2,887.28q9-29.74,17.75-59.58,10.38-35.21,20.56-70.47c.87-3,2.25-7.32-2-8.43-3.86-1-4.89,3.38-5.69,6.16-5.07,17.52-9.63,35.19-14.83,52.66-8.63,29-34.28,101.44-28.31,102.92S339.4,893.23,341.2,887.28Z"/><path class="cls-2" d="M378.84,773.45c25.51,12.08,83.82,37.8,109.42,49.72,9.78,4.58,12.88,1.22.52-5.33-35.33-18.71-72.68-33.71-109.15-50.32C375.31,765.55,363.46,766.18,378.84,773.45Z"/><path class="cls-2" d="M376.16,814.4q49.36-21,98.62-42.23c7.72-3.1,9.3-8.7-1.77-5.5S369,810.21,360.91,814C358.12,815.34,355.32,820.72,376.16,814.4Z"/><path class="cls-13" d="M423.27,521.44C328.49,519.2,274,591.87,272.31,661c-2.2,38.15,23.65,82.45,77.05,87.43,79.17,14.08,216.85,7.58,223.06-73.87C579.06,611.27,519.45,523.72,423.27,521.44ZM483,695.83c-2.45,13.21-56.66,14.27-87.84,12-21-.8-31.21-8-30.34-14.17.67-11.21,22.12-23,59.44-22.63C462.14,671.38,485.61,685.57,483,695.83Z"/></g></g></svg>