<svg xmlns="http://www.w3.org/2000/svg" xmlns:xlink="http://www.w3.org/1999/xlink" viewBox="0 0 439.97 439.14"><defs><style>.cls-1{fill:#476870;}.cls-2{fill:url(#linear-gradient);}.cls-3{fill:#e0e0e0;}.cls-4{fill:#f9f9f9;}.cls-5{fill:#627e87;}.cls-6{fill:#050306;}.cls-7{fill:#efefef;}.cls-8{fill:url(#New_Gradient_Swatch_copy_7);}.cls-9{fill:#fff;}.cls-10{fill:url(#New_Gradient_Swatch_copy_7-2);}.cls-11{fill:url(#New_Gradient_Swatch_copy_7-3);}.cls-12{fill:url(#New_Gradient_Swatch_copy_7-4);}.cls-13{fill:url(#New_Gradient_Swatch_copy_7-5);}.cls-14{fill:url(#New_Gradient_Swatch_copy_7-6);}.cls-15{fill:#8d88a6;}.cls-16{fill:#f6454d;}.cls-17{fill:#3280a6;}.cls-18{fill:url(#New_Gradient_Swatch);}.cls-19{fill:url(#New_Gradient_Swatch-2);}.cls-20{fill:url(#New_Gradient_Swatch-3);}.cls-21{fill:url(#New_Gradient_Swatch-4);}.cls-22{opacity:0.15;}</style><linearGradient id="linear-gradient" x1="42.75" y1="263.94" x2="335.29" y2="263.94" gradientUnits="userSpaceOnUse"><stop offset="0" stop-color="#476870"/><stop offset="0.28" stop-color="#4b6c74"/><stop offset="0.59" stop-color="#587880"/><stop offset="0.91" stop-color="#6e8d94"/><stop offset="1" stop-color="#76949b"/></linearGradient><linearGradient id="New_Gradient_Swatch_copy_7" x1="376.9" y1="326.74" x2="376.9" y2="414.3" gradientUnits="userSpaceOnUse"><stop offset="0" stop-color="#476870"/><stop offset="1" stop-color="#76949b"/></linearGradient><linearGradient id="New_Gradient_Swatch_copy_7-2" x1="364.49" y1="274.9" x2="368.02" y2="274.9" xlink:href="#New_Gradient_Swatch_copy_7"/><linearGradient id="New_Gradient_Swatch_copy_7-3" x1="369.83" y1="274.9" x2="389.31" y2="274.9" xlink:href="#New_Gradient_Swatch_copy_7"/><linearGradient id="New_Gradient_Swatch_copy_7-4" x1="376.9" y1="326.96" x2="376.9" y2="414.52" xlink:href="#New_Gradient_Swatch_copy_7"/><linearGradient id="New_Gradient_Swatch_copy_7-5" x1="364.49" y1="275.13" x2="368.02" y2="275.13" xlink:href="#New_Gradient_Swatch_copy_7"/><linearGradient id="New_Gradient_Swatch_copy_7-6" x1="369.83" y1="275.13" x2="389.31" y2="275.13" xlink:href="#New_Gradient_Swatch_copy_7"/><linearGradient id="New_Gradient_Swatch" x1="371.69" y1="97.02" x2="401.55" y2="67.16" gradientUnits="userSpaceOnUse"><stop offset="0" stop-color="#6542b2"/><stop offset="0.29" stop-color="#6946b6"/><stop offset="0.6" stop-color="#7653c1"/><stop offset="0.93" stop-color="#8a69d3"/><stop offset="1" stop-color="#906fd8"/></linearGradient><linearGradient id="New_Gradient_Swatch-2" x1="379.69" y1="105.03" x2="393.55" y2="91.17" xlink:href="#New_Gradient_Swatch"/><linearGradient id="New_Gradient_Swatch-3" x1="375.72" y1="101" x2="397.52" y2="79.19" xlink:href="#New_Gradient_Swatch"/><linearGradient id="New_Gradient_Swatch-4" x1="381.01" y1="107.8" x2="392.22" y2="107.8" xlink:href="#New_Gradient_Swatch"/></defs><g id="Layer_2" data-name="Layer 2"><g id="Layer_1-2" data-name="Layer 1"><g id="Cloud_Services" data-name="Cloud Services"><path class="cls-1" d="M230.65,113.4a1.37,1.37,0,0,1-1.38-1.37v-4.81a1.38,1.38,0,0,1,2.75,0V112A1.37,1.37,0,0,1,230.65,113.4Z"/><path class="cls-1" d="M230.65,127.84a1.37,1.37,0,0,1-1.38-1.37v-4.8a1.38,1.38,0,1,1,2.75,0v4.8A1.37,1.37,0,0,1,230.65,127.84Z"/><path class="cls-1" d="M110.72,161.08a1.37,1.37,0,0,1-1.37-1.37v-9.36a1.38,1.38,0,0,1,2.75,0v9.36A1.37,1.37,0,0,1,110.72,161.08Zm0-18.71a1.37,1.37,0,0,1-1.37-1.38v-.89a5.39,5.39,0,0,1,5.39-5.39h2.14a1.37,1.37,0,1,1,0,2.74h-2.14a2.65,2.65,0,0,0-2.64,2.65V141A1.38,1.38,0,0,1,110.72,142.37Zm115.91-4.92h-6.82a1.37,1.37,0,0,1,0-2.74h6.82a2.62,2.62,0,0,0,1.56-.51,1.37,1.37,0,1,1,1.62,2.21A5.33,5.33,0,0,1,226.63,137.45Zm-16.18,0H201.1a1.37,1.37,0,1,1,0-2.74h9.35a1.37,1.37,0,1,1,0,2.74Zm-18.71,0h-9.36a1.37,1.37,0,0,1,0-2.74h9.36a1.37,1.37,0,0,1,0,2.74Zm-18.71,0h-9.36a1.37,1.37,0,0,1,0-2.74H173a1.37,1.37,0,0,1,0,2.74Zm-18.72,0H145a1.37,1.37,0,1,1,0-2.74h9.35a1.37,1.37,0,1,1,0,2.74Zm-18.71,0h-9.36a1.37,1.37,0,1,1,0-2.74h9.36a1.37,1.37,0,1,1,0,2.74Z"/><path class="cls-1" d="M110.72,175.32a1.37,1.37,0,0,1-1.37-1.38v-4.8a1.38,1.38,0,0,1,2.75,0v4.8A1.38,1.38,0,0,1,110.72,175.32Z"/><path class="cls-1" d="M110.72,184.94a1.37,1.37,0,0,1-1.37-1.37v-4.81a1.38,1.38,0,0,1,2.75,0v4.81A1.37,1.37,0,0,1,110.72,184.94Z"/><path class="cls-1" d="M276.64,128.06a1.38,1.38,0,0,1-1.32-1,6.54,6.54,0,0,1-.28-1.85V121.9a1.38,1.38,0,0,1,2.75,0v3.34a3.53,3.53,0,0,0,.16,1.05,1.37,1.37,0,0,1-1.31,1.77Z"/><path class="cls-1" d="M379.57,261.58a1.38,1.38,0,0,1-1.38-1.37v-9.69a1.38,1.38,0,0,1,2.75,0v9.69A1.38,1.38,0,0,1,379.57,261.58Zm0-19.37a1.38,1.38,0,0,1-1.38-1.37v-9.69a1.38,1.38,0,0,1,2.75,0v9.69A1.38,1.38,0,0,1,379.57,242.21Zm0-19.37a1.38,1.38,0,0,1-1.38-1.37v-9.69a1.38,1.38,0,0,1,2.75,0v9.69A1.38,1.38,0,0,1,379.57,222.84Zm0-19.37a1.38,1.38,0,0,1-1.38-1.38v-9.68a1.38,1.38,0,0,1,2.75,0v9.68A1.38,1.38,0,0,1,379.57,203.47Zm0-19.37a1.38,1.38,0,0,1-1.38-1.38V173a1.38,1.38,0,0,1,2.75,0v9.68A1.38,1.38,0,0,1,379.57,184.1Zm0-19.37a1.38,1.38,0,0,1-1.38-1.38v-9.68a1.38,1.38,0,0,1,2.75,0v9.68A1.38,1.38,0,0,1,379.57,164.73Zm0-19.38a1.37,1.37,0,0,1-1.38-1.37v-9a2.32,2.32,0,0,0,0-.47,1.38,1.38,0,0,1,1.17-1.55,1.36,1.36,0,0,1,1.55,1.17,6.15,6.15,0,0,1,.06.87v9A1.37,1.37,0,0,1,379.57,145.35ZM372,131.47h-9.69a1.37,1.37,0,0,1,0-2.74H372a1.37,1.37,0,0,1,0,2.74Zm-19.37,0h-9.69a1.37,1.37,0,0,1,0-2.74h9.69a1.37,1.37,0,0,1,0,2.74Zm-19.37,0h-9.69a1.37,1.37,0,1,1,0-2.74h9.69a1.37,1.37,0,0,1,0,2.74Zm-19.38,0H304.2a1.37,1.37,0,1,1,0-2.74h9.68a1.37,1.37,0,1,1,0,2.74Zm-19.37,0h-9.68a1.37,1.37,0,1,1,0-2.74h9.68a1.37,1.37,0,1,1,0,2.74Z"/><path class="cls-1" d="M379.57,276.13a1.37,1.37,0,0,1-1.38-1.37V270a1.38,1.38,0,0,1,2.75,0v4.8A1.37,1.37,0,0,1,379.57,276.13Z"/><path class="cls-2" d="M335.29,373V164.63a9.75,9.75,0,0,0-9.72-9.71H52.47a9.74,9.74,0,0,0-9.72,9.71V373Z"/><path class="cls-3" d="M335.29,373v22.34a9.75,9.75,0,0,1-9.72,9.71H52.47a9.74,9.74,0,0,1-9.72-9.71V373Z"/><polygon class="cls-3" points="236.18 430.79 150.16 430.79 158.62 400.39 227.72 400.39 236.18 430.79"/><path class="cls-3" d="M244.73,430.79H141.61a4.18,4.18,0,1,0,0,8.35H244.73a4.18,4.18,0,1,0,0-8.35Z"/><polygon class="cls-4" points="242.06 430.79 156.04 430.79 164.5 400.39 233.61 400.39 242.06 430.79"/><path class="cls-5" d="M345.33,164.61V372.94H52.81V164.61a9.74,9.74,0,0,1,9.7-9.7H335.62A9.75,9.75,0,0,1,345.33,164.61Z"/><path class="cls-1" d="M345.34,164.61V373H317.73L105.24,154.9H335.62a9.62,9.62,0,0,1,7.07,3.14A9.43,9.43,0,0,1,345.34,164.61Z"/><polygon class="cls-6" points="62.5 363.25 62.5 164.63 335.61 164.63 335.6 363.25 62.5 363.25"/><polygon class="cls-3" points="158.6 400.53 155.69 412.83 236.52 412.83 233.58 400.53 158.6 400.53"/><path class="cls-4" d="M345.33,372.94v22.37a9.75,9.75,0,0,1-9.71,9.71H62.51a9.74,9.74,0,0,1-9.7-9.71V372.94Z"/><path class="cls-3" d="M204.3,388.85a5.24,5.24,0,1,1-5.24-5.24A5.23,5.23,0,0,1,204.3,388.85Z"/><path class="cls-7" d="M250.61,430.79H147.49a4.18,4.18,0,1,0,0,8.35H250.61a4.18,4.18,0,1,0,0-8.35Z"/><path class="cls-8" d="M426.43,272.9V432.54a6.39,6.39,0,0,1-6.38,6.38H333.77a6.39,6.39,0,0,1-6.4-6.38V272.9a6.39,6.39,0,0,1,6.4-6.4h86.28A6.4,6.4,0,0,1,426.43,272.9Z"/><path class="cls-9" d="M333.77,436.23a3.71,3.71,0,0,1-3.71-3.69V272.9a3.72,3.72,0,0,1,3.71-3.71h86.28a3.7,3.7,0,0,1,3.68,3.71V432.54a3.69,3.69,0,0,1-3.68,3.69Z"/><path class="cls-10" d="M368,275a1.77,1.77,0,1,1-1.77-1.76A1.73,1.73,0,0,1,368,275Z"/><path class="cls-11" d="M388.17,276H371a1.14,1.14,0,0,1-1.13-1.14h0a1.14,1.14,0,0,1,1.13-1.13h17.21a1.14,1.14,0,0,1,1.14,1.13h0A1.14,1.14,0,0,1,388.17,276Z"/><path class="cls-12" d="M426.43,273.12V432.77a6.38,6.38,0,0,1-6.38,6.37H333.77a6.38,6.38,0,0,1-6.4-6.37V273.12a6.39,6.39,0,0,1,6.4-6.4h86.28A6.4,6.4,0,0,1,426.43,273.12Z"/><path class="cls-9" d="M333.77,436.45a3.7,3.7,0,0,1-3.71-3.68V273.12a3.71,3.71,0,0,1,3.71-3.7h86.28a3.69,3.69,0,0,1,3.68,3.7V432.77a3.68,3.68,0,0,1-3.68,3.68Z"/><path class="cls-13" d="M368,275.18a1.77,1.77,0,0,1-3.53,0,1.77,1.77,0,1,1,3.53,0Z"/><path class="cls-14" d="M388.17,276.26H371a1.14,1.14,0,0,1-1.13-1.13h0A1.14,1.14,0,0,1,371,274h17.21a1.14,1.14,0,0,1,1.14,1.14h0A1.14,1.14,0,0,1,388.17,276.26Z"/><path class="cls-15" d="M335.73,86.87a30.34,30.34,0,0,1-30.29,30.39H159.87A23.21,23.21,0,0,1,157.2,71a26.52,26.52,0,0,1-.65-6.12A29.15,29.15,0,0,1,185.7,35.73a29.47,29.47,0,0,1,13.16,3.13A51.61,51.61,0,0,1,300.19,57a24.75,24.75,0,0,1,5.25-.55A30.33,30.33,0,0,1,335.73,86.87Z"/><path class="cls-9" d="M219.91,243.87l-6.6-2.32a3.22,3.22,0,0,1-2.08-2.14,46.71,46.71,0,0,0-3-7.23,3.43,3.43,0,0,1-.11-3l3.12-6.31a3.62,3.62,0,0,0-.69-3.94l-8.22-8.21a3.51,3.51,0,0,0-3.88-.64l-6.37,3.07a3.66,3.66,0,0,1-3-.06,44.22,44.22,0,0,0-7.18-3,3.4,3.4,0,0,1-2.2-2.14l-2.31-6.6a3.51,3.51,0,0,0-3.3-2.31H162.62a3.41,3.41,0,0,0-3.24,2.31l-2.32,6.6a3.49,3.49,0,0,1-2.2,2.14,44.48,44.48,0,0,0-7.17,3,3.67,3.67,0,0,1-3,.06l-6.37-3.07a3.61,3.61,0,0,0-3.93.64l-8.16,8.21a3.53,3.53,0,0,0-.7,3.94l3.13,6.31a3.47,3.47,0,0,1-.12,3,42.27,42.27,0,0,0-3,7.23,3.45,3.45,0,0,1-2.08,2.14l-6.6,2.32a3.47,3.47,0,0,0-2.37,3.29v11.46a3.4,3.4,0,0,0,2.37,3.24l6.6,2.32a3.45,3.45,0,0,1,2.2,2.26,41,41,0,0,0,2.89,7.11,3.73,3.73,0,0,1,.12,3.13l-3,6.31a3.18,3.18,0,0,0,.64,3.88l8.1,8.15a3.52,3.52,0,0,0,3.93.7l6.25-3.07a3.33,3.33,0,0,1,3.13.12,41,41,0,0,0,7.17,3,3.67,3.67,0,0,1,2.26,2.2l2.26,6.48a3.29,3.29,0,0,0,3.24,2.26h11.46a3.38,3.38,0,0,0,3.3-2.26l2.25-6.48a3.58,3.58,0,0,1,2.26-2.2,39.26,39.26,0,0,0,7.18-3,3.2,3.2,0,0,1,3.06-.12l6.31,3.07a3.42,3.42,0,0,0,3.88-.7l8.22-8.15a3.56,3.56,0,0,0,.69-3.88l-3.12-6.31a3.69,3.69,0,0,1,.11-3.13,40.24,40.24,0,0,0,2.89-7.11,3.45,3.45,0,0,1,2.2-2.26l6.6-2.32a3.42,3.42,0,0,0,2.32-3.24V247.16A3.5,3.5,0,0,0,219.91,243.87ZM168.4,277.73a24.84,24.84,0,1,1,24.78-24.89A24.85,24.85,0,0,1,168.4,277.73Z"/><path class="cls-9" d="M277.71,294.64l-2.81-2.86a1.83,1.83,0,0,1-.53-1.63,28.52,28.52,0,0,0,.28-4.48,2,2,0,0,1,.7-1.58l3.2-2.46a2.06,2.06,0,0,0,.64-2.2l-2.15-6.3a2,2,0,0,0-1.84-1.31l-4.05,0a2.12,2.12,0,0,1-1.53-.79,25.92,25.92,0,0,0-2.93-3.37,1.94,1.94,0,0,1-.6-1.65l.48-4a2,2,0,0,0-1.11-2l-5.9-2.89a2,2,0,0,0-2.25.37l-2.86,2.81a2,2,0,0,1-1.67.54,24.78,24.78,0,0,0-4.45-.26,2.12,2.12,0,0,1-1.57-.73l-2.5-3.19a2.09,2.09,0,0,0-2.18-.67l-6.28,2.17a2,2,0,0,0-1.35,1.85v4a1.94,1.94,0,0,1-.82,1.51,24.71,24.71,0,0,0-3.38,3,2,2,0,0,1-1.61.57l-4-.48a2,2,0,0,0-2,1.1l-2.9,5.9a2,2,0,0,0,.4,2.27l2.81,2.85a2,2,0,0,1,.56,1.72,24.38,24.38,0,0,0-.31,4.4,2.1,2.1,0,0,1-.73,1.63l-3.14,2.49a1.82,1.82,0,0,0-.65,2.16l2.1,6.24a2,2,0,0,0,1.85,1.35h4a1.88,1.88,0,0,1,1.58.84,24.06,24.06,0,0,0,2.95,3.34,2.14,2.14,0,0,1,.61,1.7l-.48,3.91a1.89,1.89,0,0,0,1.09,2l5.9,2.89a1.92,1.92,0,0,0,2.27-.33l2.8-2.76a2,2,0,0,1,1.72-.56,22.1,22.1,0,0,0,4.44.29,1.83,1.83,0,0,1,1.6.72l2.47,3.17a2,2,0,0,0,2.17.62l6.29-2.12a2,2,0,0,0,1.34-1.82v-4a2.1,2.1,0,0,1,.85-1.58,23.73,23.73,0,0,0,3.29-2.93,2,2,0,0,1,1.7-.61l4,.48a2,2,0,0,0,2-1.08l2.9-5.9A2,2,0,0,0,277.71,294.64ZM242.64,299a14.24,14.24,0,1,1,19.05-6.54A14.24,14.24,0,0,1,242.64,299Z"/><path class="cls-16" d="M391.43,342.93l-3.08-1.71a1.6,1.6,0,0,1-.85-1.24,24.44,24.44,0,0,0-.88-3.84,1.73,1.73,0,0,1,.19-1.51l2.09-2.87a1.83,1.83,0,0,0,0-2L385.5,325a1.76,1.76,0,0,0-1.87-.64l-3.42,1a1.85,1.85,0,0,1-1.49-.28,21.32,21.32,0,0,0-3.31-2.1,1.7,1.7,0,0,1-.91-1.25l-.59-3.48a1.75,1.75,0,0,0-1.44-1.42l-5.69-1a1.72,1.72,0,0,0-1.81.87l-1.71,3.08a1.76,1.76,0,0,1-1.27.88,21,21,0,0,0-3.82.89,1.84,1.84,0,0,1-1.5-.23l-2.9-2.06a1.83,1.83,0,0,0-2,0L347,322.61a1.77,1.77,0,0,0-.68,1.9l1,3.39a1.76,1.76,0,0,1-.31,1.49,21.63,21.63,0,0,0-2.11,3.33,1.75,1.75,0,0,1-1.21.89l-3.48.59a1.74,1.74,0,0,0-1.45,1.44l-1,5.69a1.71,1.71,0,0,0,.9,1.81l3.08,1.71a1.7,1.7,0,0,1,.9,1.31,20.34,20.34,0,0,0,.84,3.78,1.86,1.86,0,0,1-.21,1.56l-2,2.88a1.59,1.59,0,0,0,0,2l3.33,4.73a1.78,1.78,0,0,0,1.9.68l3.36-1a1.66,1.66,0,0,1,1.54.32,20,20,0,0,0,3.32,2.07,1.91,1.91,0,0,1,.93,1.29l.57,3.41a1.65,1.65,0,0,0,1.42,1.39l5.69,1a1.68,1.68,0,0,0,1.83-.84l1.67-3a1.8,1.8,0,0,1,1.31-.9,18.8,18.8,0,0,0,3.81-.86,1.62,1.62,0,0,1,1.53.21l2.88,2.05a1.73,1.73,0,0,0,2,0l4.77-3.36a1.78,1.78,0,0,0,.68-1.87l-1-3.39a1.88,1.88,0,0,1,.32-1.55,20.2,20.2,0,0,0,2-3.29,1.74,1.74,0,0,1,1.28-.93l3.48-.59a1.73,1.73,0,0,0,1.42-1.42l1-5.69A1.75,1.75,0,0,0,391.43,342.93ZM363,355.39a12.51,12.51,0,1,1,14.42-10.26A12.52,12.52,0,0,1,363,355.39Z"/><path class="cls-17" d="M415.84,373l-1.16-1.66a.93.93,0,0,1-.12-.85,14.9,14.9,0,0,0,.52-2.2,1,1,0,0,1,.48-.73l1.8-1a1,1,0,0,0,.5-1l-.54-3.31a1,1,0,0,0-.8-.81l-2-.35a1.07,1.07,0,0,1-.7-.53,13,13,0,0,0-1.17-1.91,1,1,0,0,1-.15-.88l.57-1.93a1,1,0,0,0-.38-1.1L410,352.85a1,1,0,0,0-1.15,0L407.2,354a1.06,1.06,0,0,1-.88.13,11.22,11.22,0,0,0-2.19-.51,1.08,1.08,0,0,1-.71-.5l-1-1.79a1.07,1.07,0,0,0-1-.52l-3.3.54a1,1,0,0,0-.83.81l-.34,2a1,1,0,0,1-.53.69,11.75,11.75,0,0,0-1.93,1.18,1,1,0,0,1-.85.15l-1.94-.57a1,1,0,0,0-1.11.37l-1.94,2.68a1,1,0,0,0,0,1.16l1.15,1.66a1,1,0,0,1,.14.9,11.34,11.34,0,0,0-.53,2.16,1.1,1.1,0,0,1-.5.75l-1.77,1a.91.91,0,0,0-.51,1l.52,3.28a1,1,0,0,0,.8.83l2,.34a1,1,0,0,1,.72.56,11.34,11.34,0,0,0,1.18,1.9,1.08,1.08,0,0,1,.15.9l-.56,1.9a.93.93,0,0,0,.37,1.07l2.69,1.94a1,1,0,0,0,1.15,0l1.62-1.14a1.07,1.07,0,0,1,.9-.13,10.48,10.48,0,0,0,2.18.52.94.94,0,0,1,.74.5l1,1.78a1,1,0,0,0,1,.49l3.3-.52a1,1,0,0,0,.82-.79l.33-2a1.07,1.07,0,0,1,.56-.72,11.7,11.7,0,0,0,1.88-1.17,1,1,0,0,1,.9-.16l1.93.57a1,1,0,0,0,1.09-.36l1.94-2.69A1,1,0,0,0,415.84,373Zm-17.79-.78a7.17,7.17,0,1,1,10-1.64A7.18,7.18,0,0,1,398.05,372.26Z"/><path class="cls-18" d="M415.27,83.31a1.71,1.71,0,0,1-2.44,0,37.07,37.07,0,0,0-52.43,0,1.72,1.72,0,0,1-1.18.51,1.75,1.75,0,0,1-1.25-.51,1.82,1.82,0,0,1,0-2.43,40.6,40.6,0,0,1,57.3,0A1.82,1.82,0,0,1,415.27,83.31Z"/><path class="cls-19" d="M399.26,96.88a1.72,1.72,0,0,1-2.43,2.44,14.4,14.4,0,0,0-20.42,0,1.73,1.73,0,0,1-1.24.45,1.7,1.7,0,0,1-1.19-.45,1.83,1.83,0,0,1,0-2.44A17.93,17.93,0,0,1,399.26,96.88Z"/><path class="cls-20" d="M407.23,88.91a1.63,1.63,0,0,1,0,2.37,1.63,1.63,0,0,1-2.37,0,25.88,25.88,0,0,0-36.48,0A1.68,1.68,0,0,1,366,88.91a29.15,29.15,0,0,1,41.23,0Z"/><path class="cls-21" d="M392.22,107.84a5.61,5.61,0,1,1-5.65-5.65A5.61,5.61,0,0,1,392.22,107.84Z"/><path class="cls-17" d="M440,196.84V224a1.86,1.86,0,0,1-1.65,2H396.08a1.86,1.86,0,0,1-1.64-2V196.84a1.86,1.86,0,0,1,1.64-2h42.24A1.86,1.86,0,0,1,440,196.84Z"/><polygon class="cls-9" points="435.11 218.28 399.3 218.28 409.92 207.37 413.65 211.21 410.82 215.74 421.23 204 435.11 218.28"/><ellipse class="cls-9" cx="413.35" cy="204.75" rx="2.12" ry="2.18"/><circle class="cls-6" cx="19.12" cy="269.42" r="19.12" transform="translate(-184.91 92.43) rotate(-45)"/><path class="cls-9" d="M26.16,270.57,18,276.43a1.41,1.41,0,0,1-2.23-1.17V263.58A1.41,1.41,0,0,1,18,262.41l8.16,5.81A1.47,1.47,0,0,1,26.16,270.57Z"/><path class="cls-7" d="M87.09,98.5v25.4a3,3,0,0,1-3,2.95H84v5.32l-9.22-5.32H43.38a3,3,0,0,1-3-2.95V98.5a3,3,0,0,1,3-2.94H84.1A3,3,0,0,1,87.09,98.5Z"/><rect class="cls-9" x="46.65" y="103.24" width="34.21" height="0.85"/><rect class="cls-9" x="46.65" y="107.66" width="34.21" height="0.85"/><path class="cls-22" d="M69,95.56v15.06a6.86,6.86,0,0,1-6.84,6.84H40.43v-19a3,3,0,0,1,3-2.94Z"/><path class="cls-16" d="M18.53,85.26v25.37a3,3,0,0,0,3,3h.12v5.32l9.21-5.32H62.21a3,3,0,0,0,2.95-3V85.26a3,3,0,0,0-2.95-3H21.5A3,3,0,0,0,18.53,85.26Z"/><rect class="cls-9" x="24.74" y="89.98" width="34.21" height="0.85" transform="translate(83.69 180.81) rotate(180)"/><rect class="cls-9" x="24.74" y="94.39" width="34.21" height="0.85" transform="translate(83.69 189.64) rotate(180)"/><rect class="cls-9" x="24.74" y="98.8" width="34.21" height="0.85" transform="translate(83.69 198.46) rotate(180)"/><rect class="cls-9" x="24.74" y="103.22" width="34.21" height="0.85" transform="translate(83.69 207.29) rotate(180)"/></g></g></g></svg>