<svg xmlns="http://www.w3.org/2000/svg" xmlns:xlink="http://www.w3.org/1999/xlink" viewBox="0 0 441.3 409.57"><defs><style>.cls-1{fill:#8d88a6;}.cls-2{fill:#627e87;}.cls-3{fill:#efefef;}.cls-4{fill:#f9f9f9;}.cls-5{fill:#e0e0e0;}.cls-6{fill:url(#New_Gradient_Swatch_copy_7);}.cls-7{fill:#fff;}.cls-8{fill:#3280a6;}.cls-9{fill:#f6454d;}.cls-10{fill:url(#New_Gradient_Swatch_copy_7-2);}</style><linearGradient id="New_Gradient_Swatch_copy_7" x1="211.22" y1="71.68" x2="211.22" y2="87.45" gradientUnits="userSpaceOnUse"><stop offset="0" stop-color="#476870"/><stop offset="1" stop-color="#76949b"/></linearGradient><linearGradient id="New_Gradient_Swatch_copy_7-2" x1="-8217.69" y1="-1489.58" x2="-8173.18" y2="-1489.58" gradientTransform="translate(2126.78 -8031.69) rotate(-85.74)" xlink:href="#New_Gradient_Swatch_copy_7"/></defs><g id="Layer_2" data-name="Layer 2"><g id="Layer_1-2" data-name="Layer 1"><g id="Blog_Management" data-name="Blog Management"><path class="cls-1" d="M439.11,144.59l-6.31-2.3a3.09,3.09,0,0,1-2-2.09,46.44,46.44,0,0,0-2.81-7,3.3,3.3,0,0,1-.07-2.89l3.07-6a3.48,3.48,0,0,0-.62-3.79l-7.8-8a3.38,3.38,0,0,0-3.72-.66l-6.15,2.87a3.48,3.48,0,0,1-2.89-.09,41.44,41.44,0,0,0-6.85-3,3.26,3.26,0,0,1-2.09-2.08l-2.15-6.37a3.35,3.35,0,0,0-3.14-2.26l-11-.13a3.29,3.29,0,0,0-3.14,2.18l-2.3,6.31a3.35,3.35,0,0,1-2.14,2,42.31,42.31,0,0,0-6.92,2.81,3.51,3.51,0,0,1-2.89,0l-6.08-3a3.5,3.5,0,0,0-3.79.56l-7.94,7.8a3.38,3.38,0,0,0-.71,3.78l2.93,6.09a3.28,3.28,0,0,1-.15,2.89,40.3,40.3,0,0,0-3,6.91,3.39,3.39,0,0,1-2,2l-6.36,2.14a3.35,3.35,0,0,0-2.32,3.14l-.13,11a3.25,3.25,0,0,0,2.24,3.14l6.31,2.3a3.33,3.33,0,0,1,2.09,2.19A38.72,38.72,0,0,0,351,172a3.54,3.54,0,0,1,.08,3l-3,6a3.06,3.06,0,0,0,.57,3.74l7.68,7.93a3.42,3.42,0,0,0,3.78.71l6-2.87a3.21,3.21,0,0,1,3,.14,38.55,38.55,0,0,0,6.85,2.92,3.56,3.56,0,0,1,2.15,2.14l2.09,6.26a3.17,3.17,0,0,0,3.09,2.2l11,.14a3.26,3.26,0,0,0,3.2-2.13l2.24-6.2A3.39,3.39,0,0,1,402,194a37.38,37.38,0,0,0,6.92-2.75,3.09,3.09,0,0,1,2.95-.08l6,3a3.29,3.29,0,0,0,3.74-.62l8-7.74a3.43,3.43,0,0,0,.71-3.72L427.39,176a3.55,3.55,0,0,1,.15-3,38.94,38.94,0,0,0,2.86-6.81,3.31,3.31,0,0,1,2.14-2.14l6.36-2.15a3.3,3.3,0,0,0,2.27-3.08l.13-11A3.35,3.35,0,0,0,439.11,144.59Zm-49.89,33.69a25.63,25.63,0,1,1,25.88-25.36A25.63,25.63,0,0,1,389.22,178.28Z"/><path class="cls-1" d="M98.15,347.05l-5.54-2a2.72,2.72,0,0,1-1.74-1.83,40,40,0,0,0-2.46-6.13,2.91,2.91,0,0,1-.07-2.54l2.7-5.29a3,3,0,0,0-.54-3.33l-6.85-7a3,3,0,0,0-3.27-.58L75,320.84a3.07,3.07,0,0,1-2.53-.08,37.21,37.21,0,0,0-6-2.61,2.85,2.85,0,0,1-1.83-1.83l-1.89-5.59a3,3,0,0,0-2.76-2l-9.66-.11a2.88,2.88,0,0,0-2.76,1.91l-2,5.55a3,3,0,0,1-1.88,1.78,36.86,36.86,0,0,0-6.08,2.47,3.08,3.08,0,0,1-2.54,0l-5.34-2.65a3.07,3.07,0,0,0-3.33.5l-7,6.85a2.94,2.94,0,0,0-.62,3.31l2.57,5.35a2.92,2.92,0,0,1-.13,2.54,35,35,0,0,0-2.61,6.07,3,3,0,0,1-1.78,1.79L11.2,346a2.94,2.94,0,0,0-2,2.76L9,358.42a2.89,2.89,0,0,0,2,2.76l5.54,2a2.91,2.91,0,0,1,1.84,1.93,34.21,34.21,0,0,0,2.37,6,3.16,3.16,0,0,1,.06,2.64l-2.6,5.29a2.69,2.69,0,0,0,.49,3.28l6.76,7a3,3,0,0,0,3.31.63l5.3-2.52a2.8,2.8,0,0,1,2.64.13,35,35,0,0,0,6,2.56A3.1,3.1,0,0,1,44.62,392l1.84,5.49a2.79,2.79,0,0,0,2.71,1.94l9.67.12a2.87,2.87,0,0,0,2.81-1.87l2-5.45a3,3,0,0,1,1.92-1.83A33.17,33.17,0,0,0,71.63,388a2.7,2.7,0,0,1,2.59-.06l5.29,2.65a2.91,2.91,0,0,0,3.28-.55l7-6.8a3,3,0,0,0,.63-3.26l-2.57-5.36A3.08,3.08,0,0,1,88,372a34.25,34.25,0,0,0,2.51-6,2.89,2.89,0,0,1,1.88-1.88L98,362.24a2.89,2.89,0,0,0,2-2.72l.12-9.66A2.94,2.94,0,0,0,98.15,347.05ZM54.33,376.64a22.51,22.51,0,1,1,22.73-22.27A22.52,22.52,0,0,1,54.33,376.64Z"/><path class="cls-2" d="M428.37,300.48h-47.5a9.9,9.9,0,0,1-9.88-9.64h-1.93a11.84,11.84,0,0,0,11.81,11.57h47.5a9.71,9.71,0,1,1,0,19.41h-9.61a11.65,11.65,0,0,0-11.63,11.64v40.71h1.92V333.46a9.72,9.72,0,0,1,9.71-9.71h9.61a11.64,11.64,0,0,0,0-23.27Z"/><path class="cls-3" d="M433.39,354.09v30.17a25.3,25.3,0,1,1-50.59,0V354.09a25.3,25.3,0,1,1,50.59,0Z"/><path class="cls-4" d="M382.8,354.09v6.67h24.46v-31.9A25.26,25.26,0,0,0,382.8,354.09Z"/><path class="cls-4" d="M433.39,354.09a25.14,25.14,0,0,0-24.47-25.23v31.9h24.47Z"/><path class="cls-5" d="M408.09,336.13a4.88,4.88,0,0,0-4.88,4.88v9.23a4.89,4.89,0,1,0,9.77,0V341A4.88,4.88,0,0,0,408.09,336.13Z"/><path class="cls-4" d="M373.75,80.9v265a16.65,16.65,0,0,1-16.69,16.62H66.3a16.63,16.63,0,0,1-16.62-16.62V80.9Z"/><path class="cls-6" d="M373.25,91.41V67.68A14.35,14.35,0,0,0,358.9,53.33H63.13a14,14,0,0,0-14,14V91.41Z"/><circle class="cls-7" cx="349.46" cy="72.37" r="4.97"/><circle class="cls-7" cx="332.93" cy="72.37" r="4.97"/><path class="cls-7" d="M321.37,72.37a5,5,0,1,1-5-5A5,5,0,0,1,321.37,72.37Z"/><path class="cls-8" d="M201.82,123.66v78c0,3.17-2.17,5.78-4.87,5.78H72.42c-2.69,0-4.82-2.61-4.82-5.78v-78c0-3.17,2.13-5.77,4.82-5.77H197C199.65,117.89,201.82,120.49,201.82,123.66Z"/><polygon class="cls-7" points="187.5 185.17 81.92 185.17 113.22 153.87 124.24 164.89 115.9 177.86 146.57 144.19 187.5 185.17"/><path class="cls-7" d="M129.6,146.36a6.25,6.25,0,1,1-6.25-6.25A6.24,6.24,0,0,1,129.6,146.36Z"/><rect class="cls-5" x="216.01" y="121.47" width="139.8" height="2.73"/><rect class="cls-5" x="216.01" y="133.66" width="139.8" height="2.73"/><rect class="cls-5" x="216.01" y="145.84" width="139.8" height="2.73"/><rect class="cls-5" x="216.01" y="158.02" width="139.8" height="2.73"/><rect class="cls-5" x="216.01" y="170.21" width="139.8" height="2.73"/><rect class="cls-5" x="216.01" y="182.39" width="139.8" height="2.73"/><rect class="cls-5" x="216.01" y="194.57" width="139.8" height="2.73"/><rect class="cls-5" x="216.01" y="206.76" width="139.8" height="2.73"/><rect class="cls-5" x="67.6" y="218.94" width="288.22" height="2.73"/><rect class="cls-5" x="67.6" y="231.12" width="288.22" height="2.73"/><rect class="cls-5" x="67.6" y="243.31" width="288.22" height="2.73"/><path class="cls-9" d="M288.73,269.72v57a5.55,5.55,0,0,0,5.52,5.59h56a5.55,5.55,0,0,0,5.52-5.59v-57a5.55,5.55,0,0,0-5.52-5.59h-56A5.55,5.55,0,0,0,288.73,269.72Z"/><rect class="cls-5" x="67.61" y="269.18" width="210.01" height="3.17" transform="translate(345.22 541.54) rotate(180)"/><rect class="cls-5" x="67.61" y="281.49" width="210.01" height="3.17" transform="translate(345.22 566.16) rotate(180)"/><rect class="cls-5" x="67.61" y="241.19" width="210.01" height="3.17" transform="translate(345.22 485.55) rotate(180)"/><rect class="cls-5" x="67.61" y="253.49" width="210.01" height="3.17" transform="translate(345.22 510.16) rotate(180)"/><rect class="cls-5" x="67.61" y="265.8" width="210.01" height="3.17" transform="translate(345.22 534.78) rotate(180)"/><rect class="cls-5" x="67.61" y="278.11" width="210.01" height="3.17" transform="translate(345.22 559.39) rotate(180)"/><circle class="cls-9" cx="65.82" cy="54.99" r="54.99" transform="translate(-19.61 62.65) rotate(-45)"/><circle class="cls-7" cx="65.82" cy="54.99" r="42.81" transform="translate(-19.61 62.65) rotate(-45)"/><circle class="cls-9" cx="65.82" cy="54.99" r="29.99" transform="translate(-19.61 62.65) rotate(-45)"/><circle class="cls-7" cx="65.82" cy="54.99" r="20.48"/><path class="cls-9" d="M66.55,45.12a9.9,9.9,0,1,1-10.61,9.14A9.89,9.89,0,0,1,66.55,45.12Z"/><path class="cls-10" d="M18.6,11.43c1.53,2.76,2.58,6.93,3.35,10.18L65.36,54.89l-.09.08L17.6,27.39a40.93,40.93,0,0,1-10.4.22C1.53,26.74-.1,24.16,0,21.52a3.85,3.85,0,0,1,3.29-3.76,4.07,4.07,0,0,1-.17-5.11A4.15,4.15,0,0,1,8,11.1a3.62,3.62,0,0,1,2.41-4.2C12.93,5.73,15.78,6.49,18.6,11.43Z"/></g></g></g></svg>