<svg xmlns="http://www.w3.org/2000/svg" xmlns:xlink="http://www.w3.org/1999/xlink" viewBox="0 0 441.3 398.86"><defs><style>.cls-1{fill:#627e87;}.cls-2{fill:#efefef;}.cls-3{fill:#476870;}.cls-4{fill:#e0e0e0;}.cls-5{fill:#050306;}.cls-6{fill:#f9f9f9;}.cls-7{fill:url(#New_Gradient_Swatch_copy_7);}.cls-8{fill:#fff;}.cls-9{fill:#0e7c7d;}.cls-10{fill:#f6454d;}.cls-11{fill:#3280a6;}.cls-12{fill:#8d88a6;}</style><linearGradient id="New_Gradient_Swatch_copy_7" x1="225.22" y1="17.11" x2="225.22" y2="31.81" gradientUnits="userSpaceOnUse"><stop offset="0" stop-color="#476870"/><stop offset="1" stop-color="#76949b"/></linearGradient></defs><g id="Layer_2" data-name="Layer 2"><g id="Layer_1-2" data-name="Layer 1"><g id="Homepage"><path class="cls-1" d="M408.34,98.33H38.8a17.3,17.3,0,0,0-17.31,17.3V372.8H425.65V115.63A17.3,17.3,0,0,0,408.34,98.33Z"/><path class="cls-2" d="M437.83,372.83H3.47a3.64,3.64,0,0,0-3.42,4.35c2,12.31,12.19,21.68,24.51,21.68H416.67c12.32,0,22.59-9.36,24.58-21.68A3.65,3.65,0,0,0,437.83,372.83Z"/><path class="cls-3" d="M408.34,98.32H38.8c-.27,0-.52.07-.79.08L425.65,363.32V115.63A17.31,17.31,0,0,0,408.34,98.32Z"/><rect class="cls-4" x="183.22" y="372.8" width="80.71" height="7.87"/><path class="cls-5" d="M32.33,362V115.63a6.47,6.47,0,0,1,6.46-6.47H408.34a6.48,6.48,0,0,1,6.48,6.47V362Z"/><path class="cls-6" d="M401.82,23.45V316.39c0,20.35-9.92,30.28-22.13,30.28H70.74c-12.21,0-22.13-9.93-22.13-30.28V23.45Z"/><path class="cls-7" d="M401.83,35.5v-19A16.44,16.44,0,0,0,385.38,0H64.59a16,16,0,0,0-16,16V35.5Z"/><path class="cls-8" d="M379.69,20.1A5.7,5.7,0,1,1,374,14.4,5.69,5.69,0,0,1,379.69,20.1Z"/><path class="cls-8" d="M360.75,20.1a5.7,5.7,0,1,1-5.7-5.7A5.7,5.7,0,0,1,360.75,20.1Z"/><path class="cls-8" d="M341.81,20.1a5.7,5.7,0,1,1-5.7-5.7A5.7,5.7,0,0,1,341.81,20.1Z"/><path class="cls-9" d="M366.5,73.54v92.67A12.59,12.59,0,0,1,354,178.76H96.48a12.55,12.55,0,0,1-12.55-12.55V73.54A12.51,12.51,0,0,1,96.48,61H354A12.55,12.55,0,0,1,366.5,73.54Z"/><polygon class="cls-8" points="198.8 80.75 198.8 90.19 185.66 102.62 185.66 80.75 198.8 80.75"/><path class="cls-8" d="M262.94,124.56,225.23,88.85l-37.79,35.78a11.18,11.18,0,0,1-1.79,1.39v34.12a2.54,2.54,0,0,0,2.55,2.56H213V135.39a2.45,2.45,0,0,1,2.42-2.41H235a2.45,2.45,0,0,1,2.48,2.41V162.7h24.76a2.6,2.6,0,0,0,2.55-2.56v-34.2A8.5,8.5,0,0,1,262.94,124.56Zm-37.71-3.3a8.31,8.31,0,1,1,8.27-8.35A8.34,8.34,0,0,1,225.23,121.26Z"/><path class="cls-8" d="M273.15,121a4.81,4.81,0,0,1-6.83.14L225.23,82.23l-41.1,38.89a4.87,4.87,0,0,1-3.31,1.38,5,5,0,0,1-3.51-1.52,4.74,4.74,0,0,1,.2-6.83l8.14-7.79L198.82,94l23.1-21.86a4.89,4.89,0,0,1,6.62,0l44.4,42.06A4.88,4.88,0,0,1,273.15,121Z"/><path class="cls-10" d="M158.14,203.62v35a6,6,0,0,1-6.07,6h-51.3a6,6,0,0,1-6.07-6v-35a6,6,0,0,1,6.07-6h51.3A6,6,0,0,1,158.14,203.62Z"/><path class="cls-11" d="M257,203.62v35a6,6,0,0,1-6.07,6h-51.3a6,6,0,0,1-6.07-6v-35a6,6,0,0,1,6.07-6h51.3A6,6,0,0,1,257,203.62Z"/><path class="cls-12" d="M355.75,203.62v35a6,6,0,0,1-6.06,6h-51.3a6,6,0,0,1-6.07-6v-35a6,6,0,0,1,6.07-6h51.3A6,6,0,0,1,355.75,203.62Z"/><rect class="cls-4" x="83.93" y="262.46" width="282.57" height="2.59"/><rect class="cls-4" x="83.93" y="274.1" width="282.57" height="2.59"/><rect class="cls-4" x="83.93" y="285.74" width="282.57" height="2.59"/><rect class="cls-4" x="83.93" y="297.37" width="282.57" height="2.59"/></g></g></g></svg>